<?xml version="1.0" encoding="utf-8"?>
<!-- Generator: Adobe Illustrator 23.0.3, SVG Export Plug-In . SVG Version: 6.00 Build 0)  -->
<svg version="1.1" id="图层_1" xmlns="http://www.w3.org/2000/svg" xmlns:xlink="http://www.w3.org/1999/xlink" x="0px" y="0px"
	 viewBox="0 0 201.4 200" style="enable-background:new 0 0 201.4 200;" xml:space="preserve">
<style type="text/css">
	.st0{fill:#989898;}
</style>
<g>
	<path class="st0" d="M136.5,64.1H64.1v72.4h72.4V64.1z M125.7,125.3h-50v-50h50V125.3z"/>
	<path class="st0" d="M200.8,106V94.7h-24.6V67h24.4V55.7H176V24.5h-31.1V0.6h-11.3v23.9h-27.7V0.6H94.6v23.9H66.9V0.6H55.6v23.9
		H24.5v31.1H0V67h24.6v27.7H0V106h24.6v27.7H0V145h24.6v31.1h31.1V200H67v-23.9h27.7V200H106v-23.9h27.7V200H145v-23.9h31.2V145
		h24.6v-11.3h-24.6V106H200.8z M164.8,164.7h-129V35.8h129V164.7z"/>
</g>
</svg>
