<?xml version="1.0" standalone="no"?><!DOCTYPE svg PUBLIC "-//W3C//DTD SVG 1.1//EN" "http://www.w3.org/Graphics/SVG/1.1/DTD/svg11.dtd"><svg t="1572350448357" class="icon" viewBox="0 0 1031 1024" version="1.1" xmlns="http://www.w3.org/2000/svg" p-id="23567" xmlns:xlink="http://www.w3.org/1999/xlink" width="201.3671875" height="200"><defs><style type="text/css"></style></defs><path d="M1026.935541 342.815803v-57.79111h-125.925907V125.547941H741.558079V3.250514h-57.791109v122.297427H541.840471V3.250514h-57.274554v122.297427H342.689814V3.250514h-57.828906v122.297427H125.396754v159.464153H0v57.803709h125.913309v141.913899H0V542.483015h125.913309v141.951696H0v57.803708h125.913309v159.464154h159.464153v122.297427h57.79111v-122.297427H485.057273v122.297427h57.828906v-122.297427h141.9139v122.297427h57.791109v-122.297427H902.080539V742.238419h125.913309v-57.791109H902.080539V542.483015h125.913309v-57.753313H902.080539V342.815803h124.855002zM843.735079 843.407508H183.187864v-660.055859h660.547215v660.055859z m-145.013227-515.017435H328.20109v370.520763h370.520762V328.390073z" fill="#989898" p-id="23568"></path></svg>