<?xml version="1.0" standalone="no"?><!DOCTYPE svg PUBLIC "-//W3C//DTD SVG 1.1//EN" "http://www.w3.org/Graphics/SVG/1.1/DTD/svg11.dtd"><svg t="1571974675314" class="icon" viewBox="0 0 1024 1024" version="1.1" xmlns="http://www.w3.org/2000/svg" p-id="3199" xmlns:xlink="http://www.w3.org/1999/xlink" width="200" height="200"><defs><style type="text/css"></style></defs><path d="M426.2 549.8H146.5c-26.6 0-48.1 21.6-48.1 48.1v279.8c0 26.6 21.6 48.1 48.1 48.1h279.8c26.6 0 48.1-21.6 48.1-48.1V598c0-26.6-21.6-48.2-48.2-48.2z m-0.6 327.4H147.1V598.6h278.6v278.6zM426.2 98.2H146.5c-26.6 0-48.1 21.6-48.1 48.1v279.8c0 26.6 21.6 48.1 48.1 48.1h279.8c26.6 0 48.1-21.6 48.1-48.1V146.3c0-26.6-21.6-48.1-48.2-48.1z m-0.6 327.3H147.1V146.9h278.6v278.6zM877.5 98.2H597.8c-26.6 0-48.1 21.6-48.1 48.1v279.8c0 26.6 21.6 48.1 48.1 48.1h279.8c26.6 0 48.1-21.6 48.1-48.1V146.3c0-26.6-21.6-48.1-48.2-48.1z m-0.6 330H598.4V149.7H877v278.5zM877.5 549.8H597.8c-26.6 0-48.1 21.6-48.1 48.1v279.8c0 26.6 21.6 48.1 48.1 48.1h279.8c26.6 0 48.1-21.6 48.1-48.1V598c0-26.6-21.6-48.2-48.2-48.2z m-0.6 327.4H598.4V598.6H877v278.6z" p-id="3200" fill="#ffffff"></path></svg>