<?xml version="1.0" encoding="utf-8"?>
<!-- Generator: Adobe Illustrator 23.0.3, SVG Export Plug-In . SVG Version: 6.00 Build 0)  -->
<svg version="1.1" id="图层_1" xmlns="http://www.w3.org/2000/svg" xmlns:xlink="http://www.w3.org/1999/xlink" x="0px" y="0px"
	 viewBox="0 0 200 200" style="enable-background:new 0 0 200 200;" xml:space="preserve">
<style type="text/css">
	.st0{fill:#249EDC;}
</style>
<path class="st0" d="M83.2,107.4H28.6c-5.2,0-9.4,4.2-9.4,9.4v54.6c0,5.2,4.2,9.4,9.4,9.4h54.6c5.2,0,9.4-4.2,9.4-9.4v-54.6
	C92.7,111.6,88.4,107.4,83.2,107.4z M83.1,171.3H28.7v-54.4h54.4L83.1,171.3L83.1,171.3z M83.2,19.2H28.6c-5.2,0-9.4,4.2-9.4,9.4
	v54.6c0,5.2,4.2,9.4,9.4,9.4h54.6c5.2,0,9.4-4.2,9.4-9.4V28.6C92.7,23.4,88.4,19.2,83.2,19.2z M83.1,83.1H28.7V28.7h54.4L83.1,83.1
	L83.1,83.1z M171.4,19.2h-54.6c-5.2,0-9.4,4.2-9.4,9.4v54.6c0,5.2,4.2,9.4,9.4,9.4h54.6c5.2,0,9.4-4.2,9.4-9.4V28.6
	C180.8,23.4,176.6,19.2,171.4,19.2L171.4,19.2z M171.3,83.6h-54.4V29.2h54.4L171.3,83.6L171.3,83.6z M171.4,107.4h-54.6
	c-5.2,0-9.4,4.2-9.4,9.4v54.6c0,5.2,4.2,9.4,9.4,9.4h54.6c5.2,0,9.4-4.2,9.4-9.4v-54.6C180.8,111.6,176.6,107.4,171.4,107.4
	L171.4,107.4z M171.3,171.3h-54.4v-54.4h54.4L171.3,171.3L171.3,171.3z"/>
</svg>
