<?xml version="1.0" standalone="no"?><!DOCTYPE svg PUBLIC "-//W3C//DTD SVG 1.1//EN" "http://www.w3.org/Graphics/SVG/1.1/DTD/svg11.dtd"><svg t="1572413835463" class="icon" viewBox="0 0 1209 1024" version="1.1" xmlns="http://www.w3.org/2000/svg" p-id="24198" xmlns:xlink="http://www.w3.org/1999/xlink" width="236.1328125" height="200"><defs><style type="text/css"></style></defs><path d="M1181.252386 251.379512C988.301528 79.500934 789.714509 0.162936 591.575861 0.264028 437.069603 0.343712 293.288585 48.141082 163.776966 127.406532c-42.488269 26.003178-80.708088 53.823628-114.450137 82.008009-12.35817 10.322063-23.435447 20.133909-33.275837 29.321366-6.537663 6.103563-10.790653 10.261408-15.596674 15.091215l83.928753 83.51725c3.867652-3.886681 7.15135-7.096641 12.471154-12.06322 8.285956-7.735303 17.733872-16.1057 28.375861-24.993449 29.479545-24.623573 63.050332-49.059233 100.355568-71.890509 112.220172-68.681738 235.492646-109.661956 366.050862-109.728558 168.35226-0.08682 339.114072 68.134653 510.859447 221.124535l78.756423-88.412469v-0.00119zM979.033199 414.071823C788.828469 258.653361 596.328362 227.528994 416.4564 290.53889c-63.445185 22.224725-120.854597 54.77508-171.468265 93.418295-32.537273 24.841217-59.871294 50.69692-72.051066 65.216074l90.712603 76.094736c6.446086-7.684163 27.437491-27.539772 53.189724-47.201523 41.278736-31.515652 87.975991-57.992177 138.76092-75.783136 141.52013-49.575396 290.732748-25.450146 448.514379 103.47514l74.918504-91.686653zM740.755178 573.307986c-51.971865-31.93429-105.398262-47.792613-160.200697-46.220339-60.451679 1.229751-116.934616 24.012265-168.095368 60.464762a409.048158 409.048158 0 0 0-47.753366 39.839665c-8.657022 8.421538-14.975851 15.285073-18.79712 19.833013l90.651949 76.167285c1.381984-1.644822 5.040316-5.618323 10.706211-11.130797a291.467744 291.467744 0 0 1 33.899039-28.280716c33.355521-23.766077 68.230987-37.834481 102.291772-38.527851 31.042304-0.889607 62.104827 8.33115 95.309306 28.733844l61.987084-100.880055 0.00119 0.001189z m248.886708 170.602444l-46.214392-46.214393c-16.513635-16.513635-43.288678-16.513635-59.802314 0-16.513635 16.513635-16.513635 43.288678 0 59.802314l46.214393 46.214392-46.214393 46.214393c-16.513635 16.513635-16.513635 43.288678 0 59.802313 16.513635 16.513635 43.288678 16.513635 59.802314 0l46.214392-46.214392 46.214393 46.214392c16.513635 16.513635 43.288678 16.513635 59.802313 0 16.513635-16.513635 16.513635-43.288678 0-59.802313l-46.214392-46.214393 46.214392-46.214392c16.513635-16.513635 16.513635-43.288678 0-59.802314-16.513635-16.513635-43.288678-16.513635-59.802313 0l-46.214393 46.214393z m0-160.088902c121.583647 0 219.891215 98.610843 219.891215 220.014904s-98.554945 219.767526-219.891215 219.767526-219.891215-98.610843-219.891215-220.014903 98.554945-219.767526 219.891215-219.767527zM660.441942 760.829621c15.783396 15.72393 24.736557 37.640623 24.736557 59.797557 0 22.156934-8.951972 44.073626-24.736557 59.797556C644.658546 896.148664 622.74899 905.201728 600.603949 905.201728s-44.288892-9.053064-59.837993-24.776994c-15.783396-15.72393-24.736557-37.640623-24.736558-59.797556 0-22.156934 8.951972-44.073626 24.736558-59.797557C556.549352 745.105691 578.458908 736.052627 600.603949 736.052627s44.288892 9.053064 59.837993 24.776994z" fill="#989898" p-id="24199"></path></svg>