<?xml version="1.0" standalone="no"?><!DOCTYPE svg PUBLIC "-//W3C//DTD SVG 1.1//EN" "http://www.w3.org/Graphics/SVG/1.1/DTD/svg11.dtd"><svg t="1571995372073" class="icon" viewBox="0 0 1024 1024" version="1.1" xmlns="http://www.w3.org/2000/svg" p-id="10026" xmlns:xlink="http://www.w3.org/1999/xlink" width="200" height="200"><defs><style type="text/css"></style></defs><path d="M581.954 319.334 266.684 319.334l0 40.145 315.269 0L581.953 319.334zM266.684 569.654l490.419 0 0-40.145L266.684 529.509 266.684 569.654zM827.273 109.15 196.73 109.15c-38.705 0-70.06 31.352-70.06 70.062l0 665.576c0 38.71 31.355 70.06 70.06 70.06l630.543 0c38.7 0 70.06-31.35 70.06-70.06L897.333 179.212C897.333 140.502 865.943 109.15 827.273 109.15zM857.183 844.788c0 19.32-24.25 29.91-29.91 29.91L196.73 874.698c-19.335 0-29.91-10.58-29.91-29.91L166.82 179.212c0-19.337 10.575-29.915 29.91-29.915l630.543 0c19.33 0 29.91 10.577 29.91 29.915l5.12 665.576L857.183 844.788zM722.073 359.479l35.03 0 0-40.145-35.03 0L722.073 359.479z" p-id="10027" fill="#ffffff"></path></svg>