<?xml version="1.0" standalone="no"?><!DOCTYPE svg PUBLIC "-//W3C//DTD SVG 1.1//EN" "http://www.w3.org/Graphics/SVG/1.1/DTD/svg11.dtd"><svg t="1572414978806" class="icon" viewBox="0 0 3072 1024" version="1.1" xmlns="http://www.w3.org/2000/svg" p-id="56254" data-spm-anchor-id="a313x.7781069.0.i28" width="300" height="100" xmlns:xlink="http://www.w3.org/1999/xlink"><defs><style type="text/css"></style></defs><path d="M89.6 766.72l230.4-33.28c7.68 29.44 21.76 53.76 44.8 71.68 21.76 17.92 47.36 26.88 74.24 26.88 32 0 62.72-11.52 90.88-35.84 28.16-24.32 42.24-62.72 42.24-116.48 0-46.08-11.52-84.48-35.84-113.92-24.32-30.72-55.04-46.08-93.44-46.08-47.36 0-84.48 16.64-113.92 49.92L115.2 549.12l101.12-520.96h569.6V230.4H400.64l-21.76 138.24c39.68-12.8 83.2-19.2 131.84-19.2 84.48 0 157.44 30.72 217.6 90.88S819.2 577.28 819.2 664.32c0 103.68-34.56 188.16-103.68 253.44-69.12 64-160 97.28-271.36 97.28C256 1015.04 138.24 931.84 89.6 766.72z m2487.04 253.44c-119.04 0-213.76-46.08-284.16-138.24-70.4-92.16-104.96-216.32-104.96-373.76 0-154.88 34.56-279.04 103.68-371.2C2361.6 46.08 2456.32 0 2576.64 0s215.04 46.08 285.44 138.24 103.68 215.04 103.68 371.2-34.56 280.32-104.96 373.76c-70.4 90.88-165.12 136.96-284.16 136.96z m135.68-509.44c0-120.32-10.24-204.8-32-252.16-20.48-47.36-56.32-71.68-103.68-71.68-39.68 0-71.68 19.2-97.28 57.6s-38.4 126.72-38.4 266.24c0 140.8 12.8 229.12 39.68 267.52s58.88 56.32 96 56.32c46.08 0 80.64-23.04 102.4-69.12 21.76-46.08 33.28-130.56 33.28-254.72zM1939.2 25.6h-870.4C1016.32 25.6 972.8 69.12 972.8 121.6v793.6c0 52.48 43.52 96 96 96h870.4c52.48 0 96-43.52 96-96v-793.6c0-52.48-43.52-96-96-96zM1292.8 115.2h640v51.2h-640V115.2z m-64 0c14.08 0 25.6 11.52 25.6 25.6s-11.52 25.6-25.6 25.6-25.6-11.52-25.6-25.6 11.52-25.6 25.6-25.6z m-89.6 0c14.08 0 25.6 11.52 25.6 25.6s-11.52 25.6-25.6 25.6-25.6-11.52-25.6-25.6 11.52-25.6 25.6-25.6z m-115.2 25.6c0-14.08 11.52-25.6 25.6-25.6s25.6 11.52 25.6 25.6-11.52 25.6-25.6 25.6-25.6-11.52-25.6-25.6z m921.6 774.4c0 3.84-2.56 6.4-6.4 6.4h-870.4c-3.84 0-6.4-2.56-6.4-6.4V281.6h883.2v633.6z" fill="#989898" p-id="56255"></path><path d="M1248 439.04l-53.76-53.76 35.84-35.84 53.76 53.76 53.76-53.76 35.84 35.84-53.76 53.76 53.76 53.76-35.84 35.84-53.76-53.76-53.76 53.76-35.84-35.84 53.76-53.76z m448 0l-53.76-53.76 35.84-35.84 53.76 53.76 53.76-53.76 35.84 35.84-53.76 53.76 53.76 53.76-35.84 35.84-53.76-53.76-53.76 53.76-35.84-35.84 53.76-53.76zM1305.6 687.36V627.2h412.16v107.52c0 39.68-10.24 71.68-30.72 96-20.48 24.32-48.64 37.12-84.48 37.12s-65.28-12.8-87.04-37.12c-21.76-24.32-32-56.32-32-94.72v-49.92H1305.6z m232.96 43.52c0 49.92 19.2 74.24 61.44 74.24 19.2 0 34.56-6.4 46.08-19.2 11.52-12.8 17.92-30.72 17.92-52.48v-44.8h-124.16v42.24z" fill="#989898" p-id="56256"></path></svg>