<?xml version="1.0" standalone="no"?><!DOCTYPE svg PUBLIC "-//W3C//DTD SVG 1.1//EN" "http://www.w3.org/Graphics/SVG/1.1/DTD/svg11.dtd"><svg t="1572349359871" class="icon" viewBox="0 0 1024 1024" version="1.1" xmlns="http://www.w3.org/2000/svg" p-id="13158" xmlns:xlink="http://www.w3.org/1999/xlink" width="200" height="200"><defs><style type="text/css"></style></defs><path d="M668.37756 432.891268c-43.330878 0-78.590939-35.260062-78.590939-78.590939 0-43.326784 35.260062-78.590939 78.590939-78.590939 43.325761 0 78.585823 35.264155 78.585823 78.590939C746.963383 397.631206 711.703321 432.891268 668.37756 432.891268L668.37756 432.891268zM668.226111 312.663022c-22.904663 0-41.490973 18.624173-41.490973 41.482787 0 22.86066 18.587334 41.490973 41.490973 41.490973 22.896476 0 41.482787-18.630313 41.482787-41.490973C709.708897 331.287195 691.122587 312.663022 668.226111 312.663022L668.226111 312.663022zM668.37756 328.10676" p-id="13159" fill="#989898"></path><path d="M474.364845 852.039533c-22.137183 0-47.288003-5.528923-67.953671-26.198685L196.83704 616.266715c-38.274722-38.273698-30.91101-100.072183 0-130.983193L432.604742 249.51582c10.245342-10.245342 20.394493-16.984836 30.635741-6.743588 10.428513 10.428513 12.415774 15.705704-5.584182 33.701566L226.732931 507.401262c-23.736611 23.731494-24.160259 67.737754-2.050706 89.846284l203.837478 203.834408c18.207687 18.207687 70.184479 12.487406 91.273796-8.602935L792.604886 519.668657c20.877493-20.878516 24.152073-46.38033 24.152073-86.777389L816.756959 326.060147c0-90.090854-28.001751-120.139218-118.092605-120.139218L539.440979 205.92093c-14.462387 0-28.245298-1.503237-28.245298-15.960507 0-14.462387 11.736299-19.035542 26.198685-19.035542l157.176762 0c118.987998 0 157.181879 38.193881 157.181879 157.181879l0 104.784508c0 60.3546-6.759961 85.349877-52.392254 130.983193l-261.966387 261.966387C523.271718 839.959404 500.954433 852.039533 474.364845 852.039533L474.364845 852.039533zM474.364845 852.039533" p-id="13160" fill="#989898"></path></svg>