<?xml version="1.0" standalone="no"?><!DOCTYPE svg PUBLIC "-//W3C//DTD SVG 1.1//EN" "http://www.w3.org/Graphics/SVG/1.1/DTD/svg11.dtd"><svg t="1571734698018" class="icon" viewBox="0 0 1024 1024" version="1.1" xmlns="http://www.w3.org/2000/svg" p-id="4905" xmlns:xlink="http://www.w3.org/1999/xlink" width="200" height="200"><defs><style type="text/css"></style></defs><path d="M512 99.254857a408.064 408.064 0 0 1 121.490286 18.249143c34.194286 10.605714 65.828571 24.905143 94.902857 42.861714a411.209143 411.209143 0 0 1 79.981714 64.768 409.965714 409.965714 0 0 1 61.696 82.322286c16.859429 29.659429 30.025143 61.878857 39.497143 96.658286 9.472 34.779429 14.226286 70.4 14.189714 106.861714s-4.754286 72.118857-14.189714 106.861714c-9.435429 34.742857-22.601143 66.962286-39.497143 96.658286a413.805714 413.805714 0 0 1-61.696 82.322286 410.404571 410.404571 0 0 1-79.981714 64.768c-29.110857 17.956571-60.708571 32.256-94.902857 42.861714A406.016 406.016 0 0 1 512 922.697143a408.064 408.064 0 0 1-121.490286-18.249143c-34.194286-10.605714-65.828571-24.905143-94.902857-42.861714s-55.698286-39.570286-79.981714-64.768a409.965714 409.965714 0 0 1-61.696-82.322286 415.707429 415.707429 0 0 1-39.497143-96.658286 403.309714 403.309714 0 0 1-14.189714-106.861714c0.036571-36.498286 4.754286-72.118857 14.189714-106.861714s22.601143-66.962286 39.497143-96.658286c16.896-29.659429 37.449143-57.124571 61.696-82.322286s50.907429-46.774857 79.981714-64.768c29.110857-17.956571 60.708571-32.256 94.902857-42.861714A406.272 406.272 0 0 1 512 99.254857zM322.742857 542.976H170.752c7.936 70.948571 35.254857 139.373714 81.956571 193.024s104.118857 89.417143 172.288 107.300571c-25.856-39.131429-48.347429-83.492571-67.510857-133.083428-19.2-49.517714-30.793143-109.385143-34.742857-167.241143z m307.821714 0h-237.129142c2.084571 26.697143 6.4 61.44 12.982857 88.137143 6.582857 26.697143 13.933714 50.322286 22.052571 70.875428 8.155429 20.553143 17.517714 40.850286 28.16 60.854858 10.642286 20.004571 20.224 36.498286 28.781714 49.408 8.557714 12.909714 17.444571 25.344 26.587429 37.229714 9.179429-11.885714 18.029714-24.356571 26.587429-37.412572 8.557714-13.056 18.139429-29.586286 28.781714-49.554285 10.642286-20.004571 20.041143-40.265143 28.16-60.854857s15.469714-44.141714 22.052571-70.729143c6.582857-26.514286 10.934857-61.220571 12.982857-87.954286z m-205.568-364.288c-68.169143 17.883429-125.622857 53.650286-172.288 107.264s-74.020571 123.904-81.956571 194.852571h151.990857a626.395429 626.395429 0 0 1 102.253714-302.153142v0.036571z m428.251429 364.288h-151.734857a625.444571 625.444571 0 0 1-102.546286 300.361143c68.169143-17.883429 125.586286-53.650286 172.288-107.300572a335.067429 335.067429 0 0 0 81.956572-186.843428l0.036571-6.217143zM512 172.544c-9.179429 11.885714-17.993143 24.356571-26.441143 37.412571-8.448 13.056-18.029714 29.586286-28.781714 49.554286s-20.187429 40.265143-28.306286 60.854857-15.469714 44.141714-22.052571 70.729143c-6.582857 26.550857-10.934857 62.976-12.982857 89.709714h237.129142c-2.084571-26.697143-6.4-63.195429-12.982857-89.892571-6.582857-26.697143-13.933714-50.322286-22.052571-70.875429a603.026286 603.026286 0 0 0-28.16-60.854857 610.596571 610.596571 0 0 0-28.781714-49.408A651.373714 651.373714 0 0 0 512 172.544z m87.003429 6.144a632.173714 632.173714 0 0 1 102.546285 302.116571h151.734857c-7.936-70.948571-35.254857-141.165714-81.956571-194.816-46.701714-53.650286-104.118857-89.417143-172.288-107.300571h-0.036571z" p-id="4906" fill="#000000"></path></svg>